# xmcd
#
# Track frame offsets:
#	150
#	9950
#	30787
#	32919
#	34989
#	50197
#	64768
#	86388
#	105728
#	122824
#	134901
#	152619
#	172378
#	191336
#
# Disc length: 2805 seconds
#
# Revision: 0
# Processed by: cddbd v1.5.1PL0 Copyright (c) Steve Scherf et al.
# Submitted via: EasyCDDAExtractor 8.1.2.3
#
DISCID=bd0af30e
DTITLE=Ali - Chaos et harmonie
DYEAR=2005
DGENRE=Rap
TTITLE0=Rappel A L'Ordre
TTITLE1=Génération Scarface
TTITLE2=l'impasse ft macson escobar
TTITLE3=observe
TTITLE4=Golden Boy
TTITLE5=Oraison Funebre
TTITLE6=La Verite Reste La Verite
TTITLE7=Chaos and Harmonie
TTITLE8=Préviens Les Autres
TTITLE9=Language Venimeux
TTITLE10=Le Chant Des Sirènes
TTITLE11=Sang Froid
TTITLE12=Tolérance Zéro
TTITLE13=A.M.O.U.R.
EXTD=
EXTT0=
EXTT1=
EXTT2=
EXTT3=
EXTT4=
EXTT5=
EXTT6=
EXTT7=
EXTT8=
EXTT9=
EXTT10=
EXTT11=
EXTT12=
EXTT13=
PLAYORDER=
